<?xml version="1.0" encoding="UTF-8"?>
<svg width="48px" height="48px" viewBox="0 0 48 48" version="1.1" xmlns="http://www.w3.org/2000/svg" xmlns:xlink="http://www.w3.org/1999/xlink">
    <!-- Generator: Sketch 54.1 (76490) - https://sketchapp.com -->
    <title>Icon/Interface/RepaymentSchedule</title>
    <desc>Created with Sketch.</desc>
    <defs>
        <path d="M22.0122,42.0476853 C19.5087947,41.4455966 17.4318,39.6782015 17.4318,36.7455 C17.4318,35.6409305 18.3272305,34.7455 19.4318,34.7455 C20.5363695,34.7455 21.4318,35.6409305 21.4318,36.7455 C21.4318,38.7928333 26.5868,38.7928333 26.5868,36.7455 C26.5868,35.8549561 25.8468067,35.2110732 23.1575393,33.8154341 L23.1069589,33.7891851 C19.0894954,31.704257 17.5708,30.3880571 17.5708,27.3875 C17.5708,24.618176 19.4624775,22.7325761 22.0122,22.0870545 L22.0122,21.0311 C22.0122,19.9265305 22.9076305,19.0311 24.0122,19.0311 C25.1167695,19.0311 26.0122,19.9265305 26.0122,21.0311 L26.0122,22.0707786 C28.6274674,22.7026185 30.5928,24.605884 30.5928,27.3875 C30.5928,28.4920695 29.6973695,29.3875 28.5928,29.3875 C27.4882305,29.3875 26.5928,28.4920695 26.5928,27.3875 C26.5928,26.5300494 25.6237157,25.8508204 24.0692753,25.8410858 C22.5150713,25.8313526 21.5708,26.489248 21.5708,27.3875 C21.5708,28.2327926 22.2973002,28.8624248 24.9494803,30.2388168 L25.0000607,30.2650659 C29.0478755,32.3657452 30.5868,33.7047939 30.5868,36.7455 C30.5868,39.6759363 28.5130125,41.4428657 26.0122,42.0462881 L26.0122,43.0308 C26.0122,44.1353695 25.1167695,45.0308 24.0122,45.0308 C22.9076305,45.0308 22.0122,44.1353695 22.0122,43.0308 L22.0122,42.0476853 Z M34.0281,6.9998 L34.0281,4.9998 C34.0281,3.8952305 34.9235305,2.9998 36.0281,2.9998 C37.1326695,2.9998 38.0281,3.8952305 38.0281,4.9998 L38.0281,7.01562203 L40.0754929,7.03186718 C43.3688628,7.05886202 46.0240996,9.73445967 46.0270996,13.0285502 L46.0320996,21.0295502 C46.0321367,21.0888436 46.0295931,21.147536 46.024575,21.2055211 L46.0403982,37.0633838 C46.0448974,40.3763062 43.3635289,43.0650958 40.0503861,43.0710978 L34.0223861,43.0800978 C32.9178178,43.0817469 32.0210514,42.1876543 32.0194022,41.0830861 C32.0177531,39.9785178 32.9118457,39.0817514 34.0164139,39.0801022 L40.0437768,39.0711033 C41.1482188,39.0691025 42.0419013,38.1729465 42.040401,37.0680956 L42.024401,21.0330956 C42.0243413,20.9732895 42.0269073,20.9140938 42.0319901,20.8556176 L42.0271008,13.0316215 C42.0261,11.9327126 41.1409097,11.0407345 40.0432314,11.031737 L38.0281,11.0157479 L38.0281,12.9998 C38.0281,14.1043695 37.1326695,14.9998 36.0281,14.9998 C34.9235305,14.9998 34.0281,14.1043695 34.0281,12.9998 L34.0281,10.9998 L26.0244,10.9998 L26.0244,12.9998 C26.0244,14.1043695 25.1289695,14.9998 24.0244,14.9998 C22.9198305,14.9998 22.0244,14.1043695 22.0244,12.9998 L22.0244,10.9998 L14.0281,10.9998 L14.0281,12.9998 C14.0281,14.1043695 13.1326695,14.9998 12.0281,14.9998 C10.9235305,14.9998 10.0281,14.1043695 10.0281,12.9998 L10.0281,11.0001 L8.00029958,11.0001 C6.8952883,11.0001 5.99979973,11.8960525 6.00029986,13.0013538 L6.0092998,37.1231954 C6.00979975,38.2285853 6.90732849,39.124103 8.01296834,39.1221028 L14.0159683,39.1121028 C15.1205363,39.1102627 16.0174572,40.0042004 16.0192972,41.1087683 C16.0211373,42.2133363 15.1271996,43.1102572 14.0226317,43.1120972 L8.01991827,43.1220967 C4.70329341,43.128097 2.01080026,40.4416366 2.00930014,37.1248462 L2.0003002,13.003005 C1.99880024,9.68807538 4.68538384,7.0001 8.00029958,7.0001 L10.0281,7.0001 L10.0281,4.9998 C10.0281,3.8952305 10.9235305,2.9998 12.0281,2.9998 C13.1326695,2.9998 14.0281,3.8952305 14.0281,4.9998 L14.0281,6.9998 L22.0244,6.9998 L22.0244,4.9998 C22.0244,3.8952305 22.9198305,2.9998 24.0244,2.9998 C25.1289695,2.9998 26.0244,3.8952305 26.0244,4.9998 L26.0244,6.9998 L34.0281,6.9998 Z" id="path-1"></path>
    </defs>
    <g id="Icon/Interface/RepaymentSchedule" stroke="none" stroke-width="1" fill="none" fill-rule="evenodd">
        <mask id="mask-2" fill="white">
            <use xlink:href="#path-1"></use>
        </mask>
        <use id="Mask" fill="#000000" fill-rule="nonzero" xlink:href="#path-1"></use>
        <g id="Brand/Colour/Primary/Black" mask="url(#mask-2)" fill="#000000">
            <rect id="Colour" x="0" y="0" width="48" height="48"></rect>
        </g>
    </g>
</svg>